# xmcd
#
# Track frame offsets:
#	150
#	20268
#	36134
#	53304
#	64923
#	77370
#	92084
#	107176
#	123078
#	141770
#	153490
#	169506
#	188950
#	201772
#
# Disc length: 2909 seconds
#
# Revision: 0
# Processed by: cddbd v1.5.2PL0 Copyright (c) Steve Scherf et al.
# Submitted via: EasyCDDAExtractor 2010.6.0.0
#
DISCID=aa0b5b0e
DTITLE=Various Artist - Mr Music Country  10 2011
DYEAR=2011
DGENRE=Country
TTITLE0=Alan Jackson - Little man
TTITLE1=Carrie Underwood - All-American girl
TTITLE2=Ricky Van Shelton - Keep it between the lines
TTITLE3=Martina McBride - My baby loves me
TTITLE4=Rick Trevino - Honky tonk crowd
TTITLE5=George Jones - Who's gonna fill their shoes
TTITLE6=Pam Tillis - Deep down
TTITLE7=Alabama - Sad lookin' moon
TTITLE8=Lorrie Morgan - I guess you had to be there
TTITLE9=Kenny Chesney - Fall in love
TTITLE10=Patty Loveless - Blame it on your heart
TTITLE11=Brooks and Dunn - Neon moon
TTITLE12=Johnny Paycheck - Barstool mountain
TTITLE13=Wade Hayes - Old enough to know better
EXTD=
EXTT0=
EXTT1=
EXTT2=
EXTT3=
EXTT4=
EXTT5=
EXTT6=
EXTT7=
EXTT8=
EXTT9=
EXTT10=
EXTT11=
EXTT12=
EXTT13=
PLAYORDER=
